PathFileType	4	(X/Y/Z)	OpenSim_Sub05_CSStiffKnee_Magnet.trc
DataRate	CameraRate	NumFrames	NumMarkers	Units	OrigDataRate	OrigDataStartFrame	OrigNumFrames
100	100	27	8	m	100	1	11248
Frame#	Time	torso_imu_offset_imu	pelvis_imu_offset_imu	tibia_r_imu_offset_imu	femur_r_imu_offset_imu	tibia_l_imu_offset_imu	femur_l_imu_offset_imu	toes_r_imu_offset_imu	toes_l_imu_offset_imu
				X1	Y1	Z1	X2	Y2	Z2	X3	Y3	Z3	X4	Y4	Z4	X5	Y5	Z5	X6	Y6	Z6	X7	Y7	Z7	X8		Y8	Z8	

1	0	-0.84460655	0.58049189	-0.17439111	-0.94982085	-0.33467318	-0.04178975	-0.88206011	0.22545918	0.32106565	-0.67078559	0.77116068	0.04971991	-0.84872139	-0.15461976	-0.44243317	-0.60867319	-0.24146699	-0.60228504	-0.27177820	0.46899054	-0.75080128	-0.25443587	0.02423453	-0.91360316
2	0.01000000	-0.84382409	0.57849985	-0.16991397	-0.94698970	-0.33390119	-0.04534202	-0.88139410	0.22379773	0.31855368	-0.66813430	0.77289770	0.05258597	-0.84790726	-0.15160874	-0.43891141	-0.60896850	-0.24118548	-0.60090351	-0.27330561	0.46696358	-0.74920288	-0.25714746	0.02371593	-0.91266617
3	0.02000000	-0.84656522	0.58063648	-0.17171064	-0.94706423	-0.33536768	-0.05308766	-0.88463024	0.22288652	0.31603539	-0.67010647	0.77152626	0.05182573	-0.85129245	-0.15108503	-0.43644319	-0.60803981	-0.24105708	-0.60081956	-0.27416034	0.46613313	-0.75241822	-0.25347292	0.02820974	-0.91204917
4	0.03000000	-0.84132629	0.57893398	-0.17473761	-0.94889564	-0.33655959	-0.05108520	-0.88352005	0.22871156	0.31528353	-0.66999569	0.76966012	0.04540676	-0.85132307	-0.14959975	-0.43720507	-0.61200863	-0.24212682	-0.60253690	-0.27482888	0.46586701	-0.75232638	-0.25368109	0.02888109	-0.91600351
5	0.04000000	-0.83524863	0.57823659	-0.17221505	-0.95370146	-0.33597083	-0.04490854	-0.87907930	0.22301398	0.31354725	-0.66843615	0.76699163	0.04675800	-0.84781538	-0.15688859	-0.43574077	-0.60884316	-0.24456725	-0.60176273	-0.27078112	0.46803657	-0.74947840	-0.25649245	0.02115264	-0.91230966
6	0.05000000	-0.84102483	0.57683916	-0.17335894	-0.95101889	-0.33765270	-0.04509639	-0.88052876	0.22398939	0.32301661	-0.66874335	0.76762825	0.04759124	-0.84908890	-0.15283902	-0.43293072	-0.61161698	-0.24636854	-0.60329507	-0.26927349	0.47155583	-0.74954689	-0.25642086	0.02090897	-0.91037622
7	0.06000000	-0.84066119	0.57684041	-0.17789708	-0.95172559	-0.33755574	-0.04954540	-0.88521341	0.22526657	0.31693407	-0.66879947	0.76723139	0.04925404	-0.84732176	-0.15021422	-0.43391471	-0.60795930	-0.24273421	-0.61115524	-0.27398102	0.46644973	-0.75212090	-0.25319438	0.02274637	-0.90886307
8	0.07000000	-0.84372402	0.57820232	-0.17770486	-0.95133723	-0.33626173	-0.05130628	-0.88247961	0.22455319	0.31385038	-0.66826777	0.76842631	0.04781135	-0.84710569	-0.15240211	-0.43291043	-0.60177931	-0.24299036	-0.60283959	-0.27320042	0.46614199	-0.75341575	-0.25439352	0.02854795	-0.91052989
9	0.08000000	-0.84419447	0.57812418	-0.17491446	-0.95312961	-0.33521834	-0.04683449	-0.88348177	0.22664829	0.32015354	-0.67061308	0.76965849	0.04584692	-0.84973711	-0.15176771	-0.43588293	-0.61288345	-0.24532546	-0.59735952	-0.27237832	0.46564105	-0.75130787	-0.26078706	0.02822322	-0.91144801
10	0.09000000	-0.83897510	0.57707484	-0.17390741	-0.95214608	-0.33436955	-0.05109125	-0.88165768	0.22474840	0.31505120	-0.66728639	0.76915247	0.04870659	-0.84488938	-0.15211742	-0.43802911	-0.60983474	-0.24189240	-0.60095457	-0.27696607	0.46819669	-0.75386717	-0.25915962	0.02426978	-0.91364818
11	0.10000000	-0.84149825	0.57570497	-0.17343066	-0.94794094	-0.33932696	-0.05068026	-0.88191013	0.22421112	0.31820027	-0.66710722	0.77018862	0.05159324	-0.85005123	-0.14393797	-0.43297101	-0.60665332	-0.24123654	-0.59638731	-0.26981202	0.47016505	-0.75809596	-0.25976446	0.02887140	-0.91687013
12	0.11000000	-0.84117178	0.57594792	-0.17591784	-0.95350942	-0.33755897	-0.04742698	-0.88244981	0.22142498	0.31659783	-0.67112000	0.76578706	0.05024947	-0.85372157	-0.14609456	-0.43418012	-0.61064662	-0.24042742	-0.59983220	-0.27177560	0.46578048	-0.74899636	-0.25930792	0.02540598	-0.91359106
13	0.12000000	-0.83995452	0.57607135	-0.17905098	-0.95234838	-0.33485216	-0.04876759	-0.87976402	0.22141969	0.31357265	-0.66519605	0.76532691	0.04739777	-0.84636098	-0.15141479	-0.44072090	-0.60941946	-0.23745403	-0.60367952	-0.27595781	0.47097277	-0.74601049	-0.25268736	0.02258256	-0.90422827
14	0.13000000	-0.83977929	0.57533467	-0.17639212	-0.95285808	-0.34314476	-0.04641391	-0.88447497	0.22422699	0.31515905	-0.66818505	0.76543256	0.04809532	-0.84717051	-0.15297091	-0.43651177	-0.61182979	-0.23779583	-0.60449610	-0.26855827	0.47085258	-0.74895532	-0.25383975	0.02498078	-0.90775960
15	0.14000000	-0.84172809	0.57867671	-0.17870443	-0.95106507	-0.34103180	-0.04673564	-0.87960708	0.22469021	0.31748402	-0.66740400	0.76550062	0.05477844	-0.85000886	-0.15488295	-0.43386764	-0.60891087	-0.23912741	-0.60428133	-0.27194275	0.46614104	-0.74516599	-0.25566728	0.02370371	-0.91450359
16	0.15000000	-0.83990848	0.57745774	-0.17855202	-0.95168290	-0.33539067	-0.05497328	-0.88402321	0.22686516	0.32637362	-0.66784447	0.77244898	0.05212804	-0.84992942	-0.15172040	-0.43531891	-0.60514709	-0.23977839	-0.60459857	-0.26989337	0.46835475	-0.75289311	-0.25367340	0.02723778	-0.90789142
17	0.16000000	-0.84014210	0.57978494	-0.17687985	-0.95140082	-0.33629464	-0.05487387	-0.88184572	0.22349977	0.31909814	-0.66753464	0.77330485	0.04920927	-0.84835720	-0.15037506	-0.43169983	-0.61127915	-0.24270864	-0.60354439	-0.26930241	0.46360344	-0.75394196	-0.25408475	0.02646481	-0.91087185
18	0.17000000	-0.84075262	0.57746212	-0.17767919	-0.95221643	-0.33752640	-0.04706438	-0.88037242	0.22364849	0.31572056	-0.66860808	0.76879214	0.05047224	-0.84868377	-0.15260259	-0.43294376	-0.60754392	-0.24269478	-0.60829837	-0.26694139	0.47001736	-0.74763431	-0.25415861	0.02657197	-0.91172570
19	0.18000000	-0.83688706	0.57917519	-0.17563527	-0.95582721	-0.33773712	-0.04589985	-0.88307236	0.22614438	0.31728248	-0.67026964	0.76853286	0.04815563	-0.84803184	-0.15053031	-0.43793402	-0.60454117	-0.23981998	-0.60913564	-0.26596030	0.47099224	-0.74923241	-0.25345181	0.02691629	-0.91167675
20	0.19000000	-0.84087288	0.58685437	-0.17794612	-0.95237999	-0.33566248	-0.05205108	-0.87896375	0.22058947	0.31303913	-0.66883859	0.76791857	0.05045310	-0.85153323	-0.15082477	-0.43552804	-0.60847578	-0.23897493	-0.60048319	-0.27276455	0.46653782	-0.74811004	-0.25675441	0.02515710	-0.91129331
21	0.20000000	-0.84100303	0.57685522	-0.17715689	-0.95044133	-0.33822747	-0.05507081	-0.88021838	0.22337772	0.31691376	-0.67396937	0.77063501	0.04999022	-0.85096734	-0.15144459	-0.43469981	-0.61441735	-0.23863894	-0.60364521	-0.26819702	0.47300574	-0.75152031	-0.25633429	0.02580504	-0.91315063
22	0.21000000	-0.83558148	0.57480799	-0.17696344	-0.94778731	-0.34170151	-0.04922943	-0.87848459	0.22302802	0.31747007	-0.67202643	0.76474715	0.04890390	-0.85030939	-0.14812162	-0.43382770	-0.61116096	-0.24110256	-0.60456486	-0.27016988	0.46776373	-0.75014224	-0.25498680	0.02442310	-0.91184140
23	0.22000000	-0.83952841	0.58106468	-0.17877060	-0.94770918	-0.33637824	-0.05068497	-0.87879437	0.22191319	0.31796135	-0.66795467	0.76342539	0.04736505	-0.85405648	-0.14871017	-0.43155325	-0.60643605	-0.24421681	-0.60404073	-0.27197246	0.46599673	-0.74620248	-0.25472464	0.02298657	-0.90820313
24	0.23000000	-0.84069912	0.58130930	-0.17845091	-0.95134673	-0.33725902	-0.05049020	-0.87907544	0.22751561	0.31513480	-0.66845576	0.76926003	0.04825702	-0.85153769	-0.14940432	-0.43575332	-0.61046409	-0.24165433	-0.60576696	-0.26791592	0.47253961	-0.75247370	-0.25644977	0.02379823	-0.91131094
25	0.24000000	-0.83838575	0.58051301	-0.17822777	-0.94871404	-0.33854028	-0.04984422	-0.87831239	0.22315626	0.31292046	-0.67091954	0.77031512	0.04469976	-0.85234289	-0.15263017	-0.43273112	-0.61030582	-0.24357211	-0.60543068	-0.27236099	0.47044407	-0.74841897	-0.25554804	0.02143887	-0.90837622
26	0.25000000	-0.84097340	0.58424706	-0.17947052	-0.95035900	-0.33857621	-0.05320268	-0.88163276	0.22437211	0.31883462	-0.67228095	0.77228337	0.04525171	-0.85042064	-0.15139075	-0.43448684	-0.60623987	-0.24423061	-0.60504958	-0.26928948	0.46718735	-0.74774768	-0.25111343	0.02457230	-0.91181728
27	0.26000000	-0.83843129	0.58191877	-0.17456963	-0.95178533	-0.33715125	-0.05316932	-0.88049631	0.22307468	0.31564194	-0.67065743	0.76872602	0.04602141	-0.85123216	-0.15422120	-0.43027215	-0.61140247	-0.23916006	-0.60001125	-0.27212358	0.46476354	-0.75433543	-0.25852461	0.02648418	-0.91307402
